<?xml version="1.0" encoding="utf-8"?>
<!-- Generator: Adobe Illustrator 24.1.2, SVG Export Plug-In . SVG Version: 6.00 Build 0)  -->
<svg version="1.1" id="Layer_1" xmlns="http://www.w3.org/2000/svg" xmlns:xlink="http://www.w3.org/1999/xlink" x="0px" y="0px"
	 viewBox="0 0 1725.89 597.28" style="enable-background:new 0 0 1725.89 597.28;" xml:space="preserve">
<style type="text/css">
	.st0{fill:#00AAFF;}
	.st1{fill:#97CF26;}
	.st2{fill:#FF6163;}
	.st3{fill:#A169F7;}
</style>
<g>
	<rect x="1122.28" y="243.78" width="56.09" height="205.42"/>
	<polygon points="1042.83,243.78 987.94,393.24 933.04,243.78 876.99,243.78 952.48,449.2 967.39,449.2 1008.46,449.2 
		1023.39,449.2 1098.86,243.78 	"/>
	<path d="M1376.32,289.04v-45.26h-67.14v-56.66h-56.04v56.66h-44.34v45.26h44.34v88.36c0,45.6,22.83,76.01,80.97,76.01
		c22.51,0,42.21-8.2,42.21-8.2l-6.78-44.38c0,0-11.05,3.27-24.61,3.27c-16.63,0-35.75-7.13-35.75-30.17v-84.9H1376.32z"/>
	<path d="M835.26,449.2h59.67L784.4,148.32h-8.94h-20.48h-13.84L630.61,449.2h59.69l21.07-57.41h102.74L835.26,449.2z
		 M728.01,346.45l34.78-94.57l34.74,94.57H728.01z"/>
	<path d="M1504.87,238.52c-60.74,0-110.02,48.23-110.02,107.62c0,59.43,49.28,107.63,110.02,107.63
		c60.71,0,110.05-48.2,110.05-107.63C1614.92,286.75,1565.58,238.52,1504.87,238.52 M1504.87,402.23
		c-31.22,0-56.56-24.77-56.56-55.32c0-30.56,25.34-55.35,56.56-55.35c31.28,0,56.56,24.79,56.56,55.35
		C1561.43,377.45,1536.15,402.23,1504.87,402.23"/>
	<path d="M1186.5,183.61c0,19.96-16.19,36.13-36.13,36.13c-19.99,0-36.16-16.16-36.16-36.13c0-19.93,16.16-36.13,36.16-36.13
		C1170.3,147.48,1186.5,163.68,1186.5,183.61"/>
	<path class="st0" d="M299.85,180.47c0,52.16-42.27,94.46-94.43,94.46c-52.16,0-94.46-42.3-94.46-94.46
		c0-52.15,42.3-94.43,94.46-94.43C257.58,86.04,299.85,128.32,299.85,180.47"/>
	<path class="st1" d="M536.18,396.35c0,63.46-51.46,114.89-114.92,114.89c-63.43,0-114.84-51.43-114.84-114.89
		c0-63.46,51.41-114.9,114.84-114.9C484.72,281.45,536.18,332.89,536.18,396.35"/>
	<path class="st2" d="M495.24,180.47c0,40.85-33.12,73.98-73.98,73.98c-40.81,0-73.92-33.13-73.92-73.98
		c0-40.83,33.12-73.94,73.92-73.94C462.12,106.53,495.24,139.64,495.24,180.47"/>
	<path class="st3" d="M258.93,396.35c0,29.55-23.97,53.46-53.51,53.46c-29.54,0-53.51-23.91-53.51-53.46
		c0-29.55,23.97-53.46,53.51-53.46C234.96,342.89,258.93,366.8,258.93,396.35"/>
</g>
</svg>
